<?xml version="1.0" standalone="no"?>
<!DOCTYPE svg PUBLIC "-//W3C//DTD SVG 20010904//EN"
 "http://www.w3.org/TR/2001/REC-SVG-20010904/DTD/svg10.dtd">
<svg version="1.0" xmlns="http://www.w3.org/2000/svg"
 width="1000.000000pt" height="865.000000pt" viewBox="0 0 1000.000000 865.000000"
 preserveAspectRatio="xMidYMid meet">

<g transform="translate(0.000000,865.000000) scale(0.100000,-0.100000)"
fill="#000000" stroke="none">
<path d="M9814 8492 c-33 -26 -80 -60 -105 -74 -24 -14 -60 -47 -79 -73 -32
-43 -182 -155 -208 -155 -5 0 -12 -9 -15 -20 -3 -14 -14 -20 -31 -20 -21 0
-26 -5 -26 -24 0 -36 -66 -116 -96 -116 -16 0 -28 -8 -35 -24 -6 -13 -33 -33
-62 -47 -38 -17 -58 -34 -72 -62 -11 -20 -27 -39 -35 -42 -8 -3 -31 -25 -50
-50 -19 -24 -40 -44 -46 -45 -16 0 -80 -78 -216 -260 -63 -85 -128 -168 -144
-183 -34 -34 -227 -150 -281 -169 -21 -7 -44 -21 -51 -31 -17 -22 -81 -55
-143 -73 -27 -8 -52 -21 -56 -29 -8 -14 -159 -65 -194 -65 -9 0 -24 -12 -34
-26 -9 -14 -30 -31 -45 -38 -16 -6 -55 -40 -86 -74 -64 -72 -125 -115 -278
-200 l-107 -60 -25 23 c-20 18 -32 21 -73 17 -42 -4 -51 -1 -60 17 -10 18 -9
21 8 21 14 0 20 9 25 38 15 86 17 92 37 92 21 0 38 45 22 61 -16 16 -63 -7
-63 -30 0 -22 -52 -69 -58 -52 -5 16 78 120 111 140 24 14 29 14 37 1 11 -17
10 -18 46 49 28 52 87 111 111 111 21 0 15 -48 -9 -70 -12 -11 -31 -20 -42
-21 -20 0 -20 -1 2 -11 17 -8 22 -20 22 -47 0 -29 -6 -39 -30 -53 -38 -22 -70
-74 -70 -116 l0 -33 40 42 c22 23 40 48 40 54 0 7 14 15 31 19 31 6 31 6 15
31 -21 32 -20 43 5 47 14 2 25 15 33 40 7 20 32 66 55 103 41 65 42 67 24 87
-10 11 -39 31 -64 44 -26 12 -58 36 -71 53 -20 23 -28 27 -37 18 -16 -15 -41
16 -41 50 l0 24 -25 -28 c-21 -24 -26 -26 -35 -13 -6 8 -9 27 -7 41 3 24 0 26
-32 25 -29 -1 -41 -8 -62 -36 -28 -38 -117 -120 -130 -120 -8 0 11 63 31 99
19 36 -9 25 -61 -24 -26 -25 -55 -45 -64 -45 -8 0 -15 -9 -15 -20 0 -11 -4
-21 -10 -21 -29 -5 -35 -2 -35 16 0 16 -8 21 -37 23 -26 2 -39 9 -43 23 -11
35 -47 23 -78 -26 -41 -64 -83 -97 -121 -93 -26 3 -33 -1 -42 -26 -13 -37 -58
-53 -74 -28 -9 16 -11 16 -22 0 -7 -9 -21 -30 -30 -47 -12 -21 -25 -31 -41
-31 -16 0 -31 -11 -48 -37 -16 -25 -33 -39 -50 -41 -20 -2 -30 -12 -42 -43
-13 -34 -20 -39 -47 -39 -17 0 -40 4 -50 10 -15 8 -25 3 -55 -33 -20 -23 -47
-59 -58 -79 -12 -21 -28 -38 -34 -38 -7 0 -13 -5 -13 -10 0 -6 -10 -14 -22
-19 -13 -5 -50 -33 -83 -63 -88 -78 -161 -132 -330 -245 -82 -54 -155 -102
-161 -106 -11 -6 -84 56 -84 72 0 4 26 38 58 77 55 64 82 104 82 119 0 3 -19
-7 -42 -23 -61 -42 -118 -69 -160 -77 -26 -5 -35 -11 -31 -21 4 -10 -3 -14
-21 -14 -14 0 -26 2 -26 4 0 8 435 379 517 441 110 83 202 191 186 218 -7 12
-44 -2 -87 -34 -22 -16 -46 -29 -54 -29 -8 0 -51 -26 -95 -59 -198 -142 -541
-353 -667 -408 -30 -14 -62 -30 -70 -37 -8 -7 -40 -23 -70 -35 -72 -29 -270
-140 -270 -152 0 -5 -10 -9 -22 -9 -25 0 -231 -135 -272 -179 -17 -17 -44 -34
-63 -37 -25 -5 -48 -23 -91 -72 -86 -99 -86 -99 -148 -117 -33 -9 -63 -21 -69
-25 -5 -4 -32 -11 -60 -15 -104 -13 -114 -16 -120 -35 -8 -24 -45 -37 -56 -19
-7 11 -9 11 -9 -1 0 -10 -31 -24 -103 -44 -180 -51 -201 -56 -245 -56 -37 0
-75 -14 -132 -50 -8 -5 -46 -18 -85 -30 -38 -12 -155 -57 -259 -101 -104 -44
-212 -84 -240 -89 -111 -18 -396 -170 -396 -211 0 -10 -16 -23 -42 -34 -24 -9
-58 -28 -76 -42 -30 -22 -33 -29 -28 -58 6 -28 2 -35 -28 -58 -66 -51 -96 -87
-96 -117 0 -22 5 -29 23 -32 15 -2 21 -9 19 -22 -3 -15 1 -17 21 -12 32 8 60
-21 35 -35 -10 -5 -36 -24 -59 -42 -49 -37 -64 -63 -30 -52 16 5 22 3 20 -7
-6 -48 20 -51 61 -5 l29 32 1 -36 c0 -36 -23 -69 -48 -69 -8 0 -10 -9 -7 -23
5 -18 1 -26 -20 -35 -19 -9 -25 -17 -21 -29 4 -10 -1 -21 -14 -30 -24 -17 -26
-39 -5 -47 19 -7 19 -30 0 -50 -20 -19 -19 -35 4 -95 20 -48 20 -49 0 -67 -22
-20 -24 -37 -5 -53 21 -18 96 35 96 67 0 14 7 33 16 43 15 17 18 16 50 -15 53
-52 41 -83 -36 -93 -24 -4 -40 -11 -40 -19 0 -24 -39 -54 -70 -54 -22 0 -37
-10 -61 -40 -18 -23 -52 -53 -74 -68 -23 -15 -40 -33 -37 -40 2 -7 -5 -12 -18
-12 -28 0 -82 -28 -98 -51 -7 -11 -21 -19 -30 -19 -9 0 -39 -14 -67 -30 -27
-16 -60 -30 -72 -30 -12 0 -28 -8 -35 -18 -8 -12 -30 -21 -60 -24 -27 -3 -97
-29 -165 -61 -144 -67 -216 -84 -171 -39 24 24 -17 12 -103 -29 -77 -38 -89
-41 -141 -35 -46 4 -70 1 -124 -20 -37 -14 -79 -24 -93 -23 -14 2 -38 -5 -52
-14 -19 -13 -108 -37 -135 -37 -2 0 -4 -7 -4 -15 0 -7 -8 -18 -17 -24 -10 -5
-17 -13 -16 -18 1 -4 -11 -7 -27 -5 -49 5 -108 -16 -132 -48 l-21 -29 -25 20
-25 19 -13 -22 c-7 -13 -16 -29 -20 -36 -4 -7 3 -26 15 -42 11 -16 21 -44 21
-62 0 -49 12 -59 84 -77 67 -16 84 -32 44 -41 l-22 -6 22 -22 c14 -14 34 -22
57 -22 39 0 43 7 18 26 -28 19 -12 25 55 18 56 -6 62 -9 62 -29 0 -19 -5 -23
-33 -23 -26 0 -107 -35 -107 -47 0 -2 16 -26 35 -55 19 -29 35 -56 35 -62 0
-5 5 -6 10 -3 6 4 7 13 2 23 -10 19 -9 68 1 79 4 3 7 15 7 25 0 10 7 18 16 18
8 0 45 12 81 26 80 32 138 35 158 8 21 -29 6 -38 -21 -13 -13 12 -25 21 -27
18 -1 -2 -8 -12 -16 -21 -18 -24 1 -58 29 -51 11 3 20 1 20 -5 0 -7 13 -5 36
4 22 9 58 14 95 12 57 -3 59 -4 46 -22 -11 -16 -25 -19 -65 -17 -35 1 -54 -3
-66 -14 -25 -26 -19 -34 22 -28 43 6 58 -7 68 -54 5 -25 2 -31 -16 -36 l-22
-6 21 -27 c27 -34 27 -47 -1 -38 -23 6 -23 6 2 -20 21 -23 22 -29 10 -36 -18
-12 -117 -50 -129 -50 -5 0 -14 -7 -21 -15 -11 -13 -8 -13 30 0 24 8 110 26
191 40 152 25 199 39 249 75 15 11 39 20 53 20 39 0 143 42 392 160 127 59
253 116 282 126 51 18 52 18 73 -1 12 -11 28 -32 36 -47 l14 -28 -140 -70
c-116 -58 -144 -69 -160 -60 -25 13 -25 26 -2 40 14 9 13 10 -8 4 -36 -10 -80
-33 -80 -43 0 -7 -109 -61 -124 -61 -3 0 -23 -11 -44 -23 -20 -13 -49 -27 -64
-30 -15 -4 -61 -38 -102 -77 -41 -38 -97 -80 -125 -94 -61 -31 -77 -51 -33
-41 33 7 50 -7 30 -25 -7 -6 -28 -20 -45 -30 -43 -26 -45 -52 -4 -40 24 6 31
5 33 -7 2 -13 9 -11 34 11 18 14 40 26 49 26 11 0 15 5 11 15 -8 21 60 62 205
121 65 27 119 54 119 60 0 14 48 49 93 68 20 8 74 40 121 71 47 30 109 66 138
79 29 13 66 38 83 55 35 38 80 62 100 54 10 -3 21 7 32 28 29 53 78 99 107 99
19 0 26 -5 26 -20 0 -31 33 -25 80 15 43 36 64 42 90 25 22 -14 0 -44 -35 -48
-15 -2 -68 -32 -119 -66 -134 -92 -303 -193 -646 -384 -228 -128 -309 -178
-321 -199 -9 -15 -24 -30 -34 -32 -15 -2 -17 2 -12 28 l7 32 -48 -27 c-26 -15
-57 -38 -69 -53 l-22 -25 -30 28 c-23 22 -35 27 -56 22 -70 -18 -91 42 -34 95
17 16 35 29 39 29 5 0 3 13 -3 29 -7 20 -15 27 -29 23 -10 -2 -21 -8 -24 -13
-3 -5 3 -6 12 -2 12 5 15 3 9 -6 -4 -8 -2 -16 5 -21 7 -5 -8 -18 -43 -38 -54
-30 -78 -52 -59 -52 5 0 15 7 22 15 14 17 30 20 30 5 0 -18 -51 -85 -71 -92
-10 -4 -19 -12 -19 -18 0 -18 26 -11 50 15 20 22 48 26 35 6 -2 -5 7 -13 20
-19 32 -15 32 -32 0 -32 -14 0 -25 -5 -25 -11 0 -7 9 -9 23 -5 12 3 25 6 29 6
4 0 8 12 10 27 2 16 8 27 16 25 6 -1 12 4 12 10 0 7 6 2 13 -12 11 -21 19 -25
54 -22 29 1 42 -2 47 -13 4 -12 19 -15 67 -13 70 3 87 -11 42 -36 l-28 -15 26
-1 c15 0 29 7 33 15 8 22 60 42 129 50 71 9 77 -7 9 -31 -34 -12 -51 -25 -62
-48 -8 -17 -21 -30 -28 -28 -7 1 -20 -4 -28 -13 -9 -8 -26 -17 -40 -20 -13 -3
-35 -7 -49 -10 -34 -7 -22 -25 16 -25 20 0 28 -4 23 -11 -6 -11 -68 -8 -165 7
-35 6 -36 5 -32 -20 4 -18 0 -28 -11 -32 -23 -9 -66 12 -66 31 0 29 -38 16
-49 -16 -14 -41 -15 -39 17 -39 15 0 33 -5 38 -10 7 -7 21 -5 43 6 31 15 33
15 54 -5 13 -11 46 -25 74 -31 50 -11 105 -50 71 -50 -8 0 -32 -11 -52 -25
-21 -14 -51 -25 -70 -25 -18 0 -61 -3 -95 -6 -55 -6 -62 -10 -76 -37 -8 -17
-15 -36 -15 -43 0 -18 -35 -27 -71 -19 -29 7 -48 -4 -49 -26 0 -16 52 -19 66
-4 18 17 40 20 49 5 10 -15 21 -12 53 15 19 15 33 21 37 15 14 -23 57 -9 104
35 26 25 51 45 55 45 3 0 6 -13 6 -30 0 -33 -30 -70 -58 -70 -9 0 -24 -12 -33
-28 -10 -18 -24 -27 -43 -28 -15 -1 -49 -12 -77 -23 -33 -15 -58 -19 -72 -15
-45 16 -82 0 -71 -30 5 -12 14 -16 29 -12 12 3 30 -1 40 -8 18 -13 18 -15 -11
-39 l-29 -26 26 -1 c15 0 46 9 70 20 24 11 52 20 61 20 18 0 48 -25 48 -41 0
-14 -87 -49 -121 -49 -31 0 -69 -15 -69 -28 0 -4 16 -12 35 -18 29 -9 37 -8
51 7 20 22 54 21 54 -3 0 -12 -8 -18 -23 -18 -13 0 -38 -11 -57 -25 -19 -14
-40 -25 -48 -25 -7 0 -12 -6 -10 -12 8 -23 75 -26 132 -7 68 23 254 55 264 45
4 -4 -5 -18 -20 -31 -28 -24 -38 -65 -17 -65 6 0 27 14 46 30 18 17 57 42 86
56 76 38 85 47 56 55 -24 7 -24 7 3 8 40 2 58 -9 57 -33 0 -17 -25 -33 -134
-86 -97 -47 -134 -70 -137 -85 -2 -11 -15 -26 -30 -32 -19 -10 -25 -19 -21
-33 8 -29 21 -25 44 14 11 19 26 37 34 40 28 10 15 -15 -31 -64 -26 -28 -41
-50 -34 -50 10 0 10 -3 0 -15 -16 -19 -26 -12 -33 24 -7 36 -39 56 -65 42 -10
-5 -29 -33 -42 -61 l-24 -51 32 -32 c25 -24 34 -29 44 -19 20 20 38 14 38 -12
0 -19 -8 -28 -34 -37 -19 -7 -37 -21 -40 -32 -3 -14 -12 -18 -38 -16 -18 2
-44 -3 -57 -10 -21 -12 -22 -15 -8 -23 10 -5 17 -20 17 -33 0 -17 6 -25 23
-27 33 -5 32 -53 -2 -53 -25 0 -39 -22 -40 -62 -1 -15 9 -28 29 -38 42 -22 50
-19 50 18 0 25 6 36 29 50 30 18 61 23 61 10 0 -5 -14 -26 -30 -47 -17 -22
-30 -45 -30 -52 0 -22 22 -28 36 -10 9 13 17 15 29 9 18 -10 108 8 130 27 7 6
52 24 100 40 48 16 92 33 99 38 6 5 45 19 86 32 132 39 144 45 346 172 251
158 343 208 379 208 27 0 27 -1 10 -13 -26 -20 -10 -38 28 -30 41 7 39 6 28
34 -7 19 -4 31 15 54 25 32 42 29 25 -3 -19 -36 -12 -42 24 -24 21 10 35 24
35 36 0 15 3 16 15 6 22 -18 19 -29 -20 -84 -22 -31 -35 -61 -35 -81 0 -24 -7
-35 -30 -48 -17 -10 -30 -23 -30 -28 0 -6 -12 -8 -29 -4 -46 10 -118 -34 -78
-48 18 -6 -16 -41 -61 -60 -20 -9 -71 -23 -112 -31 -119 -23 -130 -29 -130
-71 0 -42 -21 -88 -51 -109 -20 -14 -21 -18 -11 -78 6 -35 8 -76 5 -93 -7 -34
-116 -169 -192 -238 -29 -25 -77 -58 -107 -72 -45 -21 -54 -30 -54 -52 0 -23
3 -25 31 -19 17 3 58 17 91 30 53 22 63 23 82 11 16 -11 154 -45 181 -45 3 0
5 -11 5 -24 0 -47 38 -64 77 -34 7 6 17 7 23 3 6 -4 40 7 76 24 37 17 77 31
91 31 14 0 50 16 81 35 63 38 140 67 228 85 34 7 70 22 84 35 36 33 64 45 88
38 13 -3 33 3 52 17 20 14 48 23 73 24 28 0 48 8 63 22 28 29 91 61 137 69 20
4 37 13 37 20 0 6 73 57 163 112 279 173 421 251 587 323 41 18 90 46 109 62
35 31 47 32 108 7 31 -13 32 -12 110 61 95 88 179 149 422 301 171 107 187
115 204 101 9 -8 17 -19 17 -24 0 -11 -118 -145 -191 -217 -53 -53 -64 -78
-47 -98 10 -12 9 -18 -5 -28 -9 -7 -17 -18 -17 -25 0 -17 108 -5 130 15 23 21
89 47 101 40 12 -8 296 82 304 96 4 5 19 9 35 9 16 0 59 16 96 35 37 19 79 35
93 35 14 0 36 11 49 24 12 14 48 39 80 57 96 54 226 145 455 316 120 90 269
198 332 239 62 41 116 81 119 89 3 8 10 15 17 15 6 0 29 16 52 35 22 19 50 35
61 35 12 0 27 9 34 21 7 11 28 27 47 34 18 8 39 27 46 42 7 16 49 54 96 87 98
69 198 154 417 353 121 109 165 156 181 191 22 48 46 75 61 70 13 -4 16 5 8
25 -4 10 -3 22 2 26 103 89 241 204 369 306 169 135 195 158 195 174 0 5 15
19 34 30 36 23 116 105 116 120 0 5 -8 7 -17 5 -10 -2 -25 0 -33 5 -24 16 5
55 114 155 216 197 208 189 200 219 -10 43 -62 56 -143 36 -59 -15 54 135 256
340 60 61 93 102 93 116 0 26 128 153 365 361 189 167 193 171 201 212 l7 32
-117 -6 c-104 -6 -118 -5 -136 11 -26 23 -26 67 0 90 36 32 23 73 -35 117 -75
57 -158 98 -198 98 -43 0 -79 -13 -241 -84 -71 -32 -135 -55 -142 -52 -19 7
-18 93 1 126 10 17 14 57 14 125 1 133 -12 159 -143 295 -58 60 -108 120 -112
134 -5 20 2 36 27 68 125 162 361 418 384 418 7 0 25 14 39 31 19 22 24 37 20
55 -8 33 88 146 329 384 103 102 187 192 187 199 0 13 94 124 175 206 27 27
57 63 65 80 8 16 33 43 56 60 25 18 53 53 73 91 42 81 114 159 235 256 123 99
176 148 176 164 0 7 22 38 50 70 52 60 54 76 12 106 -40 28 -36 62 20 150 29
46 69 106 90 134 32 43 61 114 46 114 -3 0 -32 -22 -64 -48z m-4658 -2722
c112 -48 280 -138 423 -228 106 -66 156 -90 166 -80 3 3 7 51 8 106 1 55 5
103 9 107 11 11 89 -32 172 -94 73 -55 256 -206 445 -368 52 -45 98 -79 102
-75 4 4 16 37 28 73 28 86 44 108 68 93 34 -21 94 -110 149 -224 31 -63 81
-166 112 -228 31 -63 75 -135 99 -162 24 -26 43 -52 43 -57 0 -16 -107 -62
-181 -76 -107 -22 -260 -30 -307 -17 -31 8 -52 25 -93 75 -28 35 -69 76 -90
91 -36 25 -44 26 -103 20 -116 -12 -232 -62 -254 -111 -7 -15 -12 -73 -12
-135 l0 -109 54 -60 c63 -71 81 -109 72 -154 -9 -50 -68 -164 -119 -233 -216
-292 -1103 -666 -1822 -769 -132 -19 -344 -19 -534 1 -85 9 -174 13 -199 9
-62 -9 -231 -98 -389 -206 -73 -49 -136 -89 -141 -89 -5 0 -12 89 -15 198 -3
108 -8 205 -12 215 -12 29 -44 35 -135 25 -109 -12 -113 -7 -108 112 3 71 13
111 58 242 30 86 52 159 49 162 -6 6 -152 -18 -181 -29 -16 -6 -18 1 -18 72 0
167 69 302 284 558 96 114 95 113 33 104 -29 -4 -71 -8 -94 -8 -36 -1 -43 2
-48 22 -10 37 11 75 82 148 71 74 165 143 284 208 l76 41 -53 98 c-30 53 -53
101 -51 107 9 26 229 72 577 120 205 29 230 34 230 45 0 5 -16 28 -35 52 -102
128 -125 162 -125 184 0 14 7 27 16 31 9 3 76 -2 148 -11 131 -17 451 -50 579
-59 79 -6 79 -9 13 87 -37 55 -46 75 -46 111 0 24 4 46 9 50 9 5 79 -13 284
-74 38 -11 136 -43 218 -71 83 -29 157 -49 165 -46 18 7 13 29 -28 139 -46
121 -20 134 138 67z m1112 -1134 c15 -8 50 -44 77 -80 29 -39 61 -70 75 -74
14 -4 129 -7 255 -7 l230 0 59 29 c90 43 105 31 165 -134 49 -133 169 -328
306 -495 87 -108 88 -125 2 -209 -145 -142 -446 -269 -1112 -471 -139 -42
-758 -247 -888 -294 -215 -77 -368 -91 -1005 -91 -763 0 -985 21 -1219 115
-70 28 -56 51 72 112 76 36 85 38 180 38 55 0 164 -6 242 -13 162 -16 341 -6
551 29 490 82 1193 345 1525 572 168 115 208 162 359 422 113 195 107 172 43
190 -67 20 -158 98 -175 151 -25 76 12 183 73 209 42 18 150 19 185 1z m-5460
-1102 c33 -23 28 -44 -11 -44 -38 0 -70 36 -45 51 19 12 31 11 56 -7z m5017
-606 c27 -12 72 -76 126 -178 48 -91 89 -128 218 -194 62 -32 130 -73 150 -92
42 -37 70 -109 52 -127 -6 -6 -56 -13 -110 -15 -122 -5 -131 -1 -260 121 -54
51 -128 119 -167 151 -131 113 -164 149 -183 201 -37 101 -41 91 46 119 91 29
94 30 128 14z m-4182 -103 c1 -5 -11 -11 -27 -13 -25 -3 -27 -2 -15 12 15 17
39 17 42 1z m1653 -20 c58 -24 112 -83 153 -169 43 -90 67 -116 157 -170 76
-45 141 -113 124 -130 -15 -15 -382 -21 -437 -7 -30 8 -58 30 -111 85 -89 94
-112 153 -95 244 28 151 90 195 209 147z m2235 -22 c19 -21 48 -56 63 -78 16
-22 86 -96 156 -165 131 -127 157 -167 129 -195 -10 -10 -67 -17 -192 -24 -97
-6 -208 -14 -245 -17 l-68 -7 -36 79 c-50 110 -140 354 -135 368 3 11 230 73
272 75 12 1 36 -15 56 -36z m-3971 -8 c0 -2 -18 -14 -40 -25 -22 -11 -40 -25
-40 -30 0 -6 -13 -10 -30 -10 -16 0 -30 -5 -30 -11 0 -6 9 -8 23 -4 15 5 19 4
12 -3 -15 -15 -118 -19 -123 -4 -2 7 5 12 16 12 12 0 28 7 37 16 9 9 24 14 36
11 12 -3 22 0 26 9 3 8 9 12 13 9 5 -3 12 1 17 9 10 17 83 36 83 21z m2486
-58 c2 -2 9 -41 15 -87 12 -97 30 -146 56 -153 10 -3 39 -8 64 -12 89 -12 183
-98 138 -126 -16 -10 -318 -12 -394 -3 -45 6 -54 12 -95 61 -70 84 -79 109
-87 229 l-6 107 153 -6 c84 -3 154 -8 156 -10z m-2482 -433 c8 -22 5 -25 -43
-31 -44 -6 -52 4 -25 31 20 21 60 20 68 0z m-404 -184 c0 -24 -31 -27 -49 -6
-10 11 -8 15 6 19 35 9 43 7 43 -13z m243 4 c11 -11 -5 -35 -35 -50 -28 -14
-32 -14 -46 0 -14 14 -14 17 3 36 17 19 64 27 78 14z m274 -520 c3 -9 -37 -34
-52 -34 -13 0 -3 30 13 39 19 12 34 10 39 -5z m-384 -341 c11 -11 -14 -33 -38
-33 -34 0 -38 13 -8 26 34 15 38 16 46 7z m-27 -100 c-11 -11 -19 6 -11 24 8
17 8 17 12 0 3 -10 2 -21 -1 -24z m-70 -38 c-21 -16 -32 -13 -21 4 3 6 14 11
23 11 15 -1 15 -2 -2 -15z"/>
<path d="M5145 5601 c9 -91 -4 -126 -52 -142 -46 -15 -87 -6 -218 46 -109 44
-285 95 -327 95 l-21 0 21 -23 c33 -35 31 -109 -4 -144 l-26 -26 -127 6 c-128
7 -307 27 -422 48 -35 6 -80 14 -99 16 l-34 6 19 -29 c49 -75 67 -116 67 -160
1 -27 -5 -51 -13 -59 -8 -8 -69 -23 -139 -35 -324 -52 -579 -99 -601 -110 -17
-10 -17 -13 11 -73 43 -91 41 -106 -27 -159 -32 -25 -94 -69 -138 -98 -144
-96 -180 -130 -137 -130 29 0 81 -38 88 -64 8 -35 -23 -97 -97 -195 -174 -229
-211 -281 -245 -348 -20 -39 -34 -78 -31 -86 4 -10 29 -17 78 -21 40 -4 85
-14 100 -21 56 -30 53 -67 -26 -281 -77 -207 -77 -209 21 -199 143 16 173 -24
174 -232 0 -73 2 -133 4 -133 3 0 47 27 98 60 233 152 280 162 621 135 262
-21 334 -17 567 29 370 73 618 146 905 268 358 152 604 300 711 428 42 50 124
189 124 210 0 7 -24 39 -54 72 -68 75 -81 122 -73 257 8 121 20 162 60 208 55
63 120 84 296 96 l154 11 81 -86 c45 -48 91 -91 103 -97 23 -12 165 -15 225
-5 l37 6 -26 72 c-35 98 -120 292 -151 344 l-25 43 -36 -35 c-72 -71 -77 -68
-446 239 -252 210 -265 219 -265 170 0 -39 -26 -92 -51 -105 -33 -18 -112 -7
-176 26 -32 16 -123 68 -203 115 -80 47 -176 103 -214 124 l-68 38 7 -72z"/>
<path d="M6142 4569 c-73 -21 -62 -134 17 -181 79 -46 112 -72 131 -103 38
-62 39 -61 -154 -363 -65 -102 -259 -300 -361 -367 -120 -80 -221 -128 -525
-252 -242 -99 -474 -170 -765 -237 -350 -80 -348 -80 -747 -80 -196 -1 -359
-4 -363 -8 -22 -22 94 -46 300 -63 160 -13 1000 -24 1187 -15 245 11 352 29
548 92 136 43 292 92 955 295 392 120 570 186 765 286 104 53 246 151 262 180
12 22 -3 47 -122 198 -97 125 -169 246 -211 354 -17 44 -36 86 -43 93 -10 10
-41 10 -157 1 -160 -13 -428 -7 -473 11 -17 6 -67 47 -113 90 -45 44 -86 80
-90 79 -5 0 -23 -5 -41 -10z"/>
<path d="M5744 2825 c-9 -21 34 -68 206 -226 191 -174 209 -189 254 -196 55
-9 43 8 -31 47 -80 41 -194 129 -246 191 -21 24 -54 72 -73 106 -45 82 -95
117 -110 78z"/>
<path d="M3205 2708 c-64 -56 -34 -183 65 -271 57 -52 78 -57 213 -57 l101 0
-50 25 c-68 34 -94 63 -157 180 -73 133 -120 167 -172 123z"/>
<path d="M5363 2703 c-57 -29 -54 -60 23 -215 l44 -88 171 0 171 0 -88 95
c-109 120 -200 204 -231 216 -33 12 -52 11 -90 -8z"/>
<path d="M3850 2653 c-22 -9 -30 -24 -30 -61 0 -109 155 -212 321 -212 57 0
45 21 -20 36 -80 18 -118 66 -136 175 -3 21 -11 42 -18 47 -15 13 -97 23 -117
15z"/>
<path d="M7060 7320 c0 -5 7 -10 16 -10 8 0 12 5 9 10 -3 6 -10 10 -16 10 -5
0 -9 -4 -9 -10z"/>
<path d="M6890 7232 c0 -5 7 -16 16 -23 14 -12 16 -11 13 5 -4 20 -29 35 -29
18z"/>
<path d="M496 2998 c-24 -34 -20 -40 15 -22 18 9 28 19 23 23 -5 3 -12 10 -15
14 -4 5 -14 -2 -23 -15z"/>
<path d="M512 2940 c-13 -21 -6 -25 18 -10 10 6 12 12 5 19 -7 7 -14 4 -23 -9z"/>
<path d="M1775 2950 c-4 -6 5 -10 19 -10 14 0 26 5 26 10 0 6 -9 10 -19 10
-11 0 -23 -4 -26 -10z"/>
<path d="M575 2940 c3 -5 11 -10 16 -10 6 0 7 5 4 10 -3 6 -11 10 -16 10 -6 0
-7 -4 -4 -10z"/>
<path d="M1727 2923 c-10 -9 -9 -23 2 -23 5 0 11 7 15 15 5 15 -5 20 -17 8z"/>
<path d="M340 2901 c0 -9 41 -23 48 -16 2 2 1 8 -3 14 -8 13 -45 15 -45 2z"/>
<path d="M625 2890 c3 -5 12 -10 20 -10 8 0 17 5 20 10 4 6 -5 10 -20 10 -15
0 -24 -4 -20 -10z"/>
<path d="M1935 2880 c-3 -5 1 -10 9 -10 8 0 18 5 21 10 3 6 -1 10 -9 10 -8 0
-18 -4 -21 -10z"/>
<path d="M561 2854 c17 -19 25 -22 27 -11 2 9 11 12 27 9 14 -2 25 0 25 6 0
12 -34 22 -74 22 l-29 0 24 -26z"/>
<path d="M680 2820 c0 -5 -7 -10 -15 -10 -7 0 -18 -6 -22 -14 -4 -8 -24 -16
-43 -18 -29 -2 -35 -7 -38 -30 -3 -26 -3 -26 40 -17 24 5 50 18 60 29 19 24
28 25 28 5 0 -21 17 -19 30 5 6 11 7 20 2 20 -6 0 -12 9 -15 20 -5 20 -27 28
-27 10z"/>
<path d="M466 2811 c-3 -5 -25 -7 -49 -4 -40 5 -41 4 -25 -12 13 -14 23 -16
54 -9 21 5 39 15 42 22 4 14 -14 17 -22 3z"/>
<path d="M435 2720 c-4 -6 5 -10 20 -10 15 0 24 4 20 10 -3 6 -12 10 -20 10
-8 0 -17 -4 -20 -10z"/>
<path d="M1235 2710 c-16 -7 -17 -9 -3 -9 9 -1 20 4 23 9 7 11 7 11 -20 0z"/>
<path d="M456 2666 c3 -9 11 -16 16 -16 13 0 5 23 -10 28 -7 2 -10 -2 -6 -12z"/>
<path d="M552 2609 c-29 -12 -52 -23 -49 -25 7 -7 107 27 107 36 0 6 -1 10 -2
9 -2 0 -27 -9 -56 -20z"/>
<path d="M791 2414 c-24 -12 -40 -23 -35 -26 11 -7 32 1 64 24 35 26 21 27
-29 2z"/>
<path d="M6777 2403 c-14 -13 -6 -33 13 -33 13 0 20 7 20 20 0 19 -20 27 -33
13z"/>
<path d="M780 2290 c0 -5 7 -10 15 -10 8 0 15 5 15 10 0 6 -7 10 -15 10 -8 0
-15 -4 -15 -10z"/>
<path d="M1170 2275 c-7 -8 -36 -22 -66 -32 -76 -24 -79 -43 -6 -43 71 0 84 8
87 54 2 41 2 41 -15 21z"/>
<path d="M670 2250 c0 -5 7 -10 16 -10 8 0 12 5 9 10 -3 6 -10 10 -16 10 -5 0
-9 -4 -9 -10z"/>
<path d="M970 2225 c-10 -13 -9 -15 9 -15 12 0 21 6 21 15 0 8 -4 15 -9 15 -5
0 -14 -7 -21 -15z"/>
<path d="M872 2208 c3 -7 15 -15 28 -16 21 -3 22 -2 11 12 -16 19 -44 21 -39
4z"/>
<path d="M770 2131 c0 -5 7 -12 16 -15 14 -5 15 -4 4 9 -14 17 -20 19 -20 6z"/>
<path d="M1038 2033 c7 -3 16 -2 19 1 4 3 -2 6 -13 5 -11 0 -14 -3 -6 -6z"/>
<path d="M816 1981 c-11 -4 -15 -10 -9 -14 5 -3 19 0 29 8 20 15 11 18 -20 6z"/>
<path d="M848 1773 c7 -3 16 -2 19 1 4 3 -2 6 -13 5 -11 0 -14 -3 -6 -6z"/>
<path d="M1145 1374 c-11 -8 -29 -13 -40 -10 -22 4 -78 -24 -76 -39 0 -5 9 -9
19 -9 29 1 102 27 113 40 17 21 6 34 -16 18z"/>
<path d="M958 1053 c-27 -7 -21 -23 7 -23 14 0 25 4 25 9 0 13 -12 18 -32 14z"/>
</g>
</svg>
