<svg xmlns="http://www.w3.org/2000/svg" version="1.1" xmlns:xlink="http://www.w3.org/1999/xlink" xmlns:svgjs="http://svgjs.dev/svgjs" width="1440" height="560" preserveAspectRatio="none" viewBox="0 0 1440 560"><g mask="url(&quot;#SvgjsMask1139&quot;)" fill="none"><path d="M -145.77738953833057,233 C -88.18,263.6 27.02,387.6 142.22261046166943,386 C 257.42,384.4 315.02,206 430.22261046166943,225 C 545.42,244 603.02,493.6 718.2226104616694,481 C 833.42,468.4 891.02,178.8 1006.2226104616694,162 C 1121.42,145.2 1179.02,391 1294.2226104616693,397 C 1409.42,403 1553.07,209.8 1582.2226104616693,192 C 1611.38,174.2 1468.44,284.8 1440,308" stroke="rgba(51, 121, 194, 0.58)" stroke-width="2"></path><path d="M -462.4394065193229,162 C -404.84,211 -289.64,424.2 -174.4394065193229,407 C -59.24,389.8 -1.64,65.4 113.56059348067711,76 C 228.76,86.6 286.36,444.6 401.5605934806771,460 C 516.76,475.4 574.36,175.4 689.5605934806771,153 C 804.76,130.6 862.36,357.8 977.5605934806771,348 C 1092.76,338.2 1173.07,110.8 1265.5605934806772,104 C 1358.05,97.2 1405.11,272 1440,314" stroke="rgba(51, 121, 194, 0.58)" stroke-width="2"></path><path d="M -35.285413276136126,86 C 22.31,156 137.51,431.4 252.71458672386387,436 C 367.91,440.6 425.51,112.8 540.7145867238639,109 C 655.91,105.2 713.51,401.6 828.7145867238639,417 C 943.91,432.4 1001.51,179.8 1116.714586723864,186 C 1231.91,192.2 1289.51,468.8 1404.714586723864,448 C 1519.91,427.2 1685.66,115 1692.714586723864,82 C 1699.77,49 1490.54,242.8 1440,283" stroke="rgba(51, 121, 194, 0.58)" stroke-width="2"></path><path d="M -242.0965942460774,356 C -184.5,329.6 -69.3,214.4 45.903405753922605,224 C 161.1,233.6 218.7,431 333.9034057539226,404 C 449.1,377 506.7,110.6 621.9034057539226,89 C 737.1,67.4 794.7,272.8 909.9034057539226,296 C 1025.1,319.2 1082.7,205.8 1197.9034057539227,205 C 1313.1,204.2 1437.48,283 1485.9034057539227,292 C 1534.32,301 1449.18,258.4 1440,250" stroke="rgba(51, 121, 194, 0.58)" stroke-width="2"></path><path d="M -452.53792398547,350 C -394.94,313 -279.74,147 -164.53792398546997,165 C -49.34,183 8.26,433.2 123.46207601453003,440 C 238.66,446.8 296.26,228.4 411.46207601453,199 C 526.66,169.6 584.26,305.4 699.46207601453,293 C 814.66,280.6 872.26,119.6 987.46207601453,137 C 1102.66,154.4 1184.95,383 1275.46207601453,380 C 1365.97,377 1407.09,173.6 1440,122" stroke="rgba(51, 121, 194, 0.58)" stroke-width="2"></path></g><defs><mask id="SvgjsMask1139"><rect width="1440" height="560" fill="#ffffff"></rect></mask></defs></svg>